<?xml version="1.0" encoding="UTF-8" standalone="no"?>
<!DOCTYPE svg PUBLIC "-//W3C//DTD SVG 1.1//EN"
 "http://www.w3.org/Graphics/SVG/1.1/DTD/svg11.dtd">
<!-- Generated by graphviz version 5.0.0 (20220707.1540)
 -->
<!-- Title: StorageDiagram Pages: 1 -->
<svg width="559pt" height="108pt"
 viewBox="0.00 0.00 559.28 108.20" xmlns="http://www.w3.org/2000/svg" xmlns:xlink="http://www.w3.org/1999/xlink">
<g id="graph0" class="graph" transform="scale(1 1) rotate(0) translate(4 104.2)">
<title>StorageDiagram</title>
<polygon fill="white" stroke="transparent" points="-4,4 -4,-104.2 555.28,-104.2 555.28,4 -4,4"/>
<!-- 1 -->
<g id="node1" class="node">
<title>1</title>
<polygon fill="#f2f2f2" stroke="black" points="0,-0.5 0,-99.7 551.28,-99.7 551.28,-0.5 0,-0.5"/>
<text text-anchor="middle" x="275.64" y="-83.1" font-family="Courier New" font-size="14.00">GasContract &lt;&lt;Contract&gt;&gt;</text>
<polyline fill="none" stroke="black" points="0,-74.9 551.28,-74.9 "/>
<text text-anchor="middle" x="24.8" y="-58.3" font-family="Courier New" font-size="14.00">slot</text>
<polyline fill="none" stroke="black" points="0,-50.1 49.61,-50.1 "/>
<text text-anchor="middle" x="24.8" y="-33.5" font-family="Courier New" font-size="14.00">0</text>
<polyline fill="none" stroke="black" points="0,-25.3 49.61,-25.3 "/>
<text text-anchor="middle" x="24.8" y="-8.7" font-family="Courier New" font-size="14.00">1</text>
<polyline fill="none" stroke="black" points="49.61,-0.5 49.61,-74.9 "/>
<text text-anchor="middle" x="300.44" y="-58.3" font-family="Courier New" font-size="14.00">type: &lt;inherited contract&gt;.variable (bytes)</text>
<polyline fill="none" stroke="black" points="49.61,-50.1 551.28,-50.1 "/>
<text text-anchor="middle" x="120.62" y="-33.5" font-family="Courier New" font-size="14.00">unallocated (8)</text>
<polyline fill="none" stroke="black" points="191.63,-25.3 191.63,-50.1 "/>
<text text-anchor="middle" x="283.64" y="-33.5" font-family="Courier New" font-size="14.00">uint32: balance1 (4)</text>
<polyline fill="none" stroke="black" points="375.65,-25.3 375.65,-50.1 "/>
<text text-anchor="middle" x="463.47" y="-33.5" font-family="Courier New" font-size="14.00">address: user1 (20)</text>
<polyline fill="none" stroke="black" points="49.61,-25.3 551.28,-25.3 "/>
<text text-anchor="middle" x="120.62" y="-8.7" font-family="Courier New" font-size="14.00">unallocated (8)</text>
<polyline fill="none" stroke="black" points="191.63,-0.5 191.63,-25.3 "/>
<text text-anchor="middle" x="283.64" y="-8.7" font-family="Courier New" font-size="14.00">uint32: balance2 (4)</text>
<polyline fill="none" stroke="black" points="375.65,-0.5 375.65,-25.3 "/>
<text text-anchor="middle" x="463.47" y="-8.7" font-family="Courier New" font-size="14.00">address: user2 (20)</text>
</g>
</g>
</svg>
