<?xml version="1.0" encoding="UTF-8" standalone="no"?>
<!DOCTYPE svg PUBLIC "-//W3C//DTD SVG 1.1//EN"
 "http://www.w3.org/Graphics/SVG/1.1/DTD/svg11.dtd">
<!-- Generated by graphviz version 5.0.0 (20220707.1540)
 -->
<!-- Title: StorageDiagram Pages: 1 -->
<svg width="685pt" height="83pt"
 viewBox="0.00 0.00 685.30 83.40" xmlns="http://www.w3.org/2000/svg" xmlns:xlink="http://www.w3.org/1999/xlink">
<g id="graph0" class="graph" transform="scale(1 1) rotate(0) translate(4 79.4)">
<title>StorageDiagram</title>
<polygon fill="white" stroke="transparent" points="-4,4 -4,-79.4 681.3,-79.4 681.3,4 -4,4"/>
<!-- 1 -->
<g id="node1" class="node">
<title>1</title>
<polygon fill="#f2f2f2" stroke="black" points="0,-0.5 0,-74.9 677.3,-74.9 677.3,-0.5 0,-0.5"/>
<text text-anchor="middle" x="338.65" y="-58.3" font-family="Courier New" font-size="14.00">GasContract &lt;&lt;Contract&gt;&gt;</text>
<polyline fill="none" stroke="black" points="0,-50.1 677.3,-50.1 "/>
<text text-anchor="middle" x="24.8" y="-33.5" font-family="Courier New" font-size="14.00">slot</text>
<polyline fill="none" stroke="black" points="0,-25.3 49.61,-25.3 "/>
<text text-anchor="middle" x="24.8" y="-8.7" font-family="Courier New" font-size="14.00">0</text>
<polyline fill="none" stroke="black" points="49.61,-0.5 49.61,-50.1 "/>
<text text-anchor="middle" x="363.45" y="-33.5" font-family="Courier New" font-size="14.00">type: &lt;inherited contract&gt;.variable (bytes)</text>
<polyline fill="none" stroke="black" points="49.61,-25.3 677.3,-25.3 "/>
<text text-anchor="middle" x="120.62" y="-8.7" font-family="Courier New" font-size="14.00">unallocated (8)</text>
<polyline fill="none" stroke="black" points="191.63,-0.5 191.63,-25.3 "/>
<text text-anchor="middle" x="313.04" y="-8.7" font-family="Courier New" font-size="14.00">address: whitelistUser (20)</text>
<polyline fill="none" stroke="black" points="434.46,-0.5 434.46,-25.3 "/>
<text text-anchor="middle" x="555.88" y="-8.7" font-family="Courier New" font-size="14.00">uint32: whitelistAmount (4)</text>
</g>
</g>
</svg>
